<svg id="visual" viewBox="0 0 964 96" width="964" height="96" xmlns="http://www.w3.org/2000/svg" xmlns:xlink="http://www.w3.org/1999/xlink" version="1.1"><rect x="0" y="0" width="964" height="96" fill="#f3f6f9"></rect><path d="M0 16L23 25.8C46 35.7 92 55.3 137.8 65.7C183.7 76 229.3 77 275.2 67.5C321 58 367 38 413 31C459 24 505 30 551 32C597 34 643 32 688.8 39.2C734.7 46.3 780.3 62.7 826.2 62.2C872 61.7 918 44.3 941 35.7L964 27L964 97L941 97C918 97 872 97 826.2 97C780.3 97 734.7 97 688.8 97C643 97 597 97 551 97C505 97 459 97 413 97C367 97 321 97 275.2 97C229.3 97 183.7 97 137.8 97C92 97 46 97 23 97L0 97Z" fill="#e8ebed" stroke-linecap="round" stroke-linejoin="miter"></path></svg>
